<?xml version="1.0" encoding="utf-8"?>
<!-- Generator: Adobe Illustrator 24.2.3, SVG Export Plug-In . SVG Version: 6.00 Build 0)  -->
<svg version="1.2" baseProfile="tiny" id="Layer_1" xmlns="http://www.w3.org/2000/svg" xmlns:xlink="http://www.w3.org/1999/xlink"
	 x="0px" y="0px" viewBox="0 0 505.18 104.87" overflow="visible" xml:space="preserve">
<g>
	<g>
		<linearGradient id="SVGID_1_" gradientUnits="userSpaceOnUse" x1="11.429" y1="51.9612" x2="500.565" y2="51.9612">
			<stop  offset="0" style="stop-color:#139FCE"/>
			<stop  offset="1" style="stop-color:#0E719D"/>
		</linearGradient>
		<path fill="url(#SVGID_1_)" d="M281.47,96.27c-0.08-0.88-0.21-1.68-0.2-2.47c0.07-6.62,0.21-13.24,0.23-19.85
			c0.03-14.98,0.03-29.95-0.02-44.93c-0.01-5.22-0.2-10.43-0.25-15.64c-0.01-1.13-0.47-1.55-1.55-1.52
			c-1.96,0.05-3.92,0.1-5.87,0.04c-1.34-0.04-1.81,0.44-1.8,1.8c0.04,12.67,0.02,25.35,0.02,38.02c0,6.11,0.04,12.21,0,18.32
			c0,0.66-0.42,1.32-0.64,1.97c-0.5-0.42-1.07-0.77-1.49-1.26c-1.67-1.97-3.27-4.01-4.94-5.99c-4.79-5.67-9.63-11.3-14.4-16.98
			c-6.97-8.27-13.89-16.59-20.85-24.86c-3.82-4.54-7.67-9.04-11.54-13.53c-0.63-0.73-1.46-1.28-2.2-1.91
			c-0.2,0.92-0.57,1.84-0.57,2.76c-0.01,22.64,0.02,45.28,0.04,67.92c0,4.44,0.02,8.87-0.03,13.31c-0.02,1.35,0.49,1.85,1.84,1.8
			c1.9-0.08,3.8-0.05,5.69,0c1.4,0.04,1.94-0.54,1.93-1.96c-0.06-6.39-0.05-12.79-0.06-19.18c-0.02-12.38-0.04-24.77-0.04-37.15
			c0-0.69,0.18-1.39,0.28-2.08c0.16-0.06,0.32-0.11,0.48-0.17c0.77,0.89,1.56,1.76,2.32,2.66c2.63,3.13,5.24,6.27,7.87,9.39
			c3.74,4.44,7.5,8.87,11.24,13.31c5.08,6.03,10.14,12.07,15.21,18.11c5.28,6.3,10.62,12.55,15.79,18.94
			C278.97,96.38,279.87,96.69,281.47,96.27z M446.1,20.81c0.89,0,1.41,0,1.92,0c7.37,0.06,14.74,0.21,22.11,0.17
			c9.34-0.05,15.86,4.39,18.32,12.42c2.12,6.93-0.52,15.37-6.01,19.38c-4.34,3.17-9.18,3.96-14.31,3.92
			c-2.59-0.02-5.17-0.2-7.76-0.26c-1.08-0.03-2.17,0.12-3.25,0.08c-3.21-0.1-6.43-0.23-9.64-0.37c-0.89-0.04-1.21,0.31-1.21,1.21
			c0,6.74-0.04,13.47-0.06,20.21c-0.01,4.53-0.03,9.06,0.01,13.59c0.01,1.26,0.46,2.2,2.06,2.06c1.43-0.12,2.88-0.08,4.32-0.05
			c2.75,0.05,2.85-0.04,2.85-2.75c-0.01-8.98-0.01-17.97-0.01-26.95c0-0.94,0.09-1.87,0.15-3.15c0.72,0.45,1.09,0.6,1.35,0.86
			c5.65,5.58,11.29,11.16,16.91,16.75c4.77,4.75,9.51,9.53,14.31,14.26c0.49,0.48,1.27,0.91,1.93,0.93
			c2.99,0.11,5.98,0.09,8.97,0.05c0.5-0.01,1-0.34,1.5-0.52c-0.25-0.6-0.4-1.27-0.77-1.77c-0.55-0.73-1.26-1.33-1.91-1.98
			c-7.4-7.41-14.8-14.81-22.18-22.23c-0.45-0.45-0.79-1.01-1.44-1.84c0.96-0.11,1.5-0.18,2.04-0.24c1.2-0.12,2.44-0.1,3.59-0.39
			c6.9-1.73,11.77-6.09,15.12-12.17c3.18-5.77,4.26-11.9,2.99-18.49c-1.03-5.37-3.2-10.08-7.05-13.9
			c-5.19-5.16-11.5-7.83-18.89-7.78c-5.36,0.03-10.71,0.01-16.07,0.01c-2.59,0-5.19-0.06-7.77,0.04c-0.59,0.02-1.62,0.57-1.66,0.96
			C446.3,15.43,446.24,18,446.1,20.81z M27.05,11.87c0,0.01,0,0.02,0,0.02c-4.61,0-9.21,0.02-13.82-0.01
			c-1.04-0.01-1.63,0.25-1.62,1.43c0.01,1.77-0.09,3.55-0.13,5.32c-0.04,1.56,0.68,2.29,2.3,2.29c7.08,0.02,14.16,0.1,21.24,0.16
			c1.09,0.01,2.18-0.01,3.27,0.01c7.1,0.11,13.82,5.82,15.54,12.12c1.13,4.14,0.96,8.07-0.49,11.99c-2.2,5.94-6.67,9.52-12.71,10.78
			c-3.4,0.71-6.98,0.62-10.49,0.65c-5.34,0.05-10.68-0.1-16.03-0.19c-1.42-0.03-2.66,0.28-2.69,1.92c-0.06,3.1,0.07,6.2,0.09,9.3
			c0.02,3.86,0.02,7.71,0.01,11.57c-0.01,3.97-0.1,7.95-0.06,11.92c0.01,1.21,0.62,2.05,2.06,2.01c1.55-0.04,3.11,0.05,4.66,0.04
			c2.06-0.02,2.46-0.35,2.48-2.38c0.04-7.54,0.05-15.09,0.01-22.63c-0.01-2.24,0.27-2.57,2.51-2.56c5.59,0.01,11.2,0.29,16.75-0.14
			c8.64-0.67,15.36-5.03,19.9-12.33c3.69-5.94,4.85-12.5,3.62-19.52c-0.89-5.1-2.99-9.65-6.41-13.31
			c-5.22-5.58-11.76-8.69-19.63-8.47C33.97,11.95,30.51,11.87,27.05,11.87z M329.2,93.15c0,0,0-0.01,0-0.01c7.72,0,15.44,0,23.16,0
			c2.09,0,2.2-0.09,2.2-1.87c0-1.04,0-2.08,0-3.13c0-2.23-0.2-2.39-2.99-2.39c-12.15-0.01-24.31-0.04-36.46-0.02
			c-1.47,0-2.11-0.38-2.1-1.61c0.03-6.92,0.03-13.83-0.01-20.75c-0.01-1.25,0.54-1.86,2.09-1.86c5.87,0.02,11.75,0.03,17.62,0.04
			c3.17,0.01,6.34,0.01,9.5,0.02c1.59,0.01,2.5-0.46,2.3-1.95c-0.14-1.03-0.03-2.08-0.03-3.12c0-2.32,0-2.32-2.91-2.32
			c-11.75,0-23.5,0.01-35.24-0.01c-2.38,0-2.6,0.12-2.6,2.06c-0.01,11.75,0,23.5-0.04,35.25c-0.01,1.33,0.64,1.7,2.17,1.69
			C313.65,93.12,321.42,93.15,329.2,93.15z M400.46,93.14C400.46,93.14,400.46,93.14,400.46,93.14c7.89-0.01,15.78-0.03,23.66,0.01
			c1.13,0,1.6-0.35,1.62-1.2c0.03-1.35,0.04-2.7,0.04-4.05c0-1.76-0.18-1.92-2.36-1.93c-12.32-0.04-24.64-0.09-36.96-0.09
			c-1.56,0-2.28-0.31-2.27-1.73c0.07-6.84,0.06-13.69-0.01-20.53c-0.01-1.24,0.77-1.57,1.99-1.58c3.45-0.05,6.89-0.06,10.34-0.06
			c5.7,0,11.4,0.03,17.09,0.04c2.04,0,2.29-0.21,2.28-1.84c-0.01-1.16-0.1-2.33-0.02-3.49c0.1-1.34-0.65-1.81-2.23-1.78
			c-1.96,0.04-3.91-0.05-5.87-0.05c-10.13-0.03-20.26-0.05-30.38-0.07c-1.41,0-2.47,0.25-2.46,1.69c0.05,8.33,0.05,16.67,0.09,25
			c0.01,3.12,0.22,6.24,0.08,9.35c-0.1,2.16-0.1,2.32,2.57,2.32C385.26,93.14,392.86,93.14,400.46,93.14z M79.73,53.8
			c0.01,0,0.02,0,0.03,0c0,5.76-0.01,11.52,0,17.28c0.02,6.56,0.1,13.13,0.08,19.69c-0.01,1.93,0.33,2.5,2.26,2.59
			c1.32,0.06,2.65,0,3.97,0c2.88,0.01,3.09-0.19,3.17-3.1c0.01-0.4,0.01-0.81,0-1.21c-0.05-7.02-0.13-14.03-0.16-21.05
			c-0.03-7.47-0.03-14.95,0-22.43c0.03-8.46,0.1-16.91,0.14-25.37c0.01-2.13,0-4.26,0.01-6.39c0-1.15-0.5-1.85-1.71-1.88
			c-2.18-0.05-4.36-0.13-6.54-0.04c-0.39,0.02-1.02,0.73-1.07,1.17c-0.17,1.53-0.18,3.09-0.18,4.63
			C79.72,29.73,79.73,41.77,79.73,53.8z M327.29,11.94c0-0.02,0-0.04,0-0.07c-7.13,0-14.27,0.03-21.4-0.02
			c-1.63-0.01-2.35,0.56-2.2,2.23c0.09,0.97,0.01,1.95,0.01,2.93c-0.02,3.15-0.71,4.53,3.87,3.87c0.51-0.07,1.03-0.03,1.55-0.03
			c9.03,0.01,18.06,0.01,27.08,0.02c4.19,0,8.39,0.01,12.58,0.04c1.4,0.01,1.96-0.65,1.91-2.02c-0.06-1.78-0.08-3.57,0-5.35
			c0.06-1.27-0.57-1.6-1.66-1.6C341.78,11.94,334.53,11.94,327.29,11.94z M398.57,20.99c0-0.02,0-0.04,0-0.06
			c7.13,0,14.26-0.03,21.39,0.03c1.47,0.01,1.97-0.59,1.95-1.93c-0.03-1.78-0.08-3.57-0.02-5.35c0.04-1.17-0.4-1.71-1.58-1.72
			c-2.53-0.01-5.06-0.07-7.59-0.07c-12.02-0.01-24.04-0.02-36.06-0.03c-1.09,0-1.69,0.26-1.56,1.62c0.14,1.41-0.05,2.86-0.15,4.29
			c-0.19,2.6,0.32,3.21,2.9,3.21C384.76,21,391.66,20.99,398.57,20.99z"/>
		<linearGradient id="SVGID_2_" gradientUnits="userSpaceOnUse" x1="215.3935" y1="51.9612" x2="281.5201" y2="51.9612">
			<stop  offset="0" style="stop-color:#139FCE"/>
			<stop  offset="1" style="stop-color:#0E719D"/>
		</linearGradient>
		<path fill="url(#SVGID_2_)" d="M281.47,96.27c-1.6,0.42-2.51,0.11-3.51-1.14c-5.17-6.39-10.51-12.64-15.79-18.94
			c-5.07-6.04-10.13-12.08-15.21-18.11c-3.74-4.44-7.5-8.87-11.24-13.31c-2.63-3.12-5.24-6.26-7.87-9.39
			c-0.76-0.9-1.54-1.78-2.32-2.66c-0.16,0.06-0.32,0.11-0.48,0.17c-0.1,0.69-0.28,1.39-0.28,2.08c0,12.38,0.02,24.77,0.04,37.15
			c0.01,6.39,0,12.79,0.06,19.18c0.01,1.41-0.53,2-1.93,1.96c-1.9-0.05-3.8-0.08-5.69,0c-1.35,0.06-1.85-0.45-1.84-1.8
			c0.05-4.44,0.03-8.87,0.03-13.31c-0.02-22.64-0.05-45.28-0.04-67.92c0-0.92,0.37-1.84,0.57-2.76c0.74,0.63,1.57,1.18,2.2,1.91
			c3.87,4.49,7.73,8.99,11.54,13.53c6.96,8.28,13.88,16.59,20.85,24.86c4.78,5.68,9.61,11.31,14.4,16.98
			c1.67,1.98,3.27,4.01,4.94,5.99c0.41,0.49,0.99,0.84,1.49,1.26c0.22-0.66,0.63-1.31,0.64-1.97c0.04-6.1,0-12.21,0-18.32
			c0-12.67,0.02-25.35-0.02-38.02c0-1.37,0.46-1.84,1.8-1.8c1.96,0.06,3.92,0,5.87-0.04c1.08-0.03,1.54,0.39,1.55,1.52
			c0.05,5.22,0.24,10.43,0.25,15.64c0.04,14.98,0.05,29.95,0.02,44.93c-0.01,6.62-0.16,13.24-0.23,19.85
			C281.26,94.59,281.4,95.39,281.47,96.27z"/>
		<linearGradient id="SVGID_3_" gradientUnits="userSpaceOnUse" x1="110.1158" y1="52.7109" x2="192.7431" y2="52.7109">
			<stop  offset="0" style="stop-color:#139FCE"/>
			<stop  offset="1" style="stop-color:#0E719D"/>
		</linearGradient>
		<path fill="url(#SVGID_3_)" d="M192.72,52.93c0.43,22.19-18.09,40.23-39.23,41.02c-24.85,0.93-42.97-18.51-43.38-40.28
			c-0.45-23.74,18.36-41.47,39.86-42.21C174.08,10.63,193.42,30.27,192.72,52.93z M151.47,19.66
			c-18.84,0.24-32.87,15.28-33.18,32.39c-0.33,18.06,15.11,36.23,37.77,33.37c15.01-1.9,28.78-14.6,28.57-33.19
			C184.43,33.63,169.27,19.77,151.47,19.66z"/>
		<linearGradient id="SVGID_4_" gradientUnits="userSpaceOnUse" x1="446.0985" y1="52.5447" x2="500.565" y2="52.5447">
			<stop  offset="0" style="stop-color:#139FCE"/>
			<stop  offset="1" style="stop-color:#0E719D"/>
		</linearGradient>
		<path fill="url(#SVGID_4_)" d="M446.1,20.81c0.14-2.81,0.2-5.39,0.47-7.94c0.04-0.39,1.07-0.94,1.66-0.96
			c2.59-0.11,5.18-0.04,7.77-0.04c5.36,0,10.71,0.02,16.07-0.01c7.39-0.05,13.7,2.63,18.89,7.78c3.85,3.82,6.02,8.54,7.05,13.9
			c1.27,6.59,0.18,12.72-2.99,18.49c-3.35,6.08-8.23,10.44-15.12,12.17c-1.16,0.29-2.39,0.26-3.59,0.39
			c-0.54,0.06-1.08,0.13-2.04,0.24c0.64,0.83,0.98,1.39,1.44,1.84c7.39,7.42,14.79,14.82,22.18,22.23c0.65,0.65,1.36,1.26,1.91,1.98
			c0.38,0.5,0.52,1.17,0.77,1.77c-0.5,0.18-1,0.51-1.5,0.52c-2.99,0.04-5.99,0.06-8.97-0.05c-0.66-0.02-1.44-0.45-1.93-0.93
			c-4.8-4.72-9.53-9.51-14.31-14.26c-5.63-5.6-11.27-11.18-16.91-16.75c-0.26-0.26-0.63-0.41-1.35-0.86
			c-0.06,1.28-0.15,2.21-0.15,3.15c-0.01,8.98,0,17.97,0.01,26.95c0,2.71-0.1,2.8-2.85,2.75c-1.44-0.03-2.89-0.07-4.32,0.05
			c-1.6,0.14-2.05-0.8-2.06-2.06c-0.04-4.53-0.03-9.06-0.01-13.59c0.02-6.74,0.06-13.47,0.06-20.21c0-0.9,0.32-1.25,1.21-1.21
			c3.21,0.14,6.43,0.28,9.64,0.37c1.08,0.03,2.17-0.11,3.25-0.08c2.59,0.06,5.17,0.24,7.76,0.26c5.13,0.05,9.97-0.74,14.31-3.92
			c5.49-4.01,8.13-12.45,6.01-19.38c-2.46-8.03-8.98-12.48-18.32-12.42c-7.37,0.04-14.74-0.1-22.11-0.17
			C447.51,20.81,446.99,20.81,446.1,20.81z"/>
		<linearGradient id="SVGID_5_" gradientUnits="userSpaceOnUse" x1="11.429" y1="52.5212" x2="63.9333" y2="52.5212">
			<stop  offset="0" style="stop-color:#139FCE"/>
			<stop  offset="1" style="stop-color:#0E719D"/>
		</linearGradient>
		<path fill="url(#SVGID_5_)" d="M27.05,11.87c3.46,0,6.91,0.08,10.37-0.02c7.87-0.22,14.42,2.89,19.63,8.47
			c3.42,3.66,5.52,8.21,6.41,13.31c1.23,7.02,0.06,13.58-3.62,19.52c-4.53,7.3-11.26,11.66-19.9,12.33
			c-5.55,0.43-11.16,0.15-16.75,0.14c-2.25,0-2.53,0.33-2.51,2.56c0.04,7.54,0.03,15.09-0.01,22.63c-0.01,2.03-0.42,2.36-2.48,2.38
			c-1.55,0.01-3.11-0.08-4.66-0.04c-1.43,0.04-2.04-0.8-2.06-2.01c-0.03-3.97,0.05-7.95,0.06-11.92c0.01-3.86,0.01-7.71-0.01-11.57
			c-0.02-3.1-0.15-6.2-0.09-9.3c0.03-1.65,1.27-1.95,2.69-1.92c5.34,0.1,10.69,0.24,16.03,0.19c3.5-0.03,7.09,0.06,10.49-0.65
			c6.04-1.26,10.5-4.83,12.71-10.78c1.45-3.91,1.61-7.85,0.49-11.99C52.12,26.92,45.4,21.21,38.3,21.1c-1.09-0.02-2.18,0-3.27-0.01
			c-7.08-0.06-14.16-0.14-21.24-0.16c-1.62,0-2.34-0.73-2.3-2.29c0.04-1.78,0.14-3.55,0.13-5.32c-0.01-1.19,0.59-1.44,1.62-1.43
			c4.61,0.03,9.21,0.01,13.82,0.01C27.05,11.89,27.05,11.88,27.05,11.87z"/>
		<linearGradient id="SVGID_6_" gradientUnits="userSpaceOnUse" x1="303.6969" y1="73.5072" x2="354.5662" y2="73.5072">
			<stop  offset="0" style="stop-color:#139FCE"/>
			<stop  offset="1" style="stop-color:#0E719D"/>
		</linearGradient>
		<path fill="url(#SVGID_6_)" d="M329.2,93.15c-7.78,0-15.55-0.02-23.33,0.02c-1.53,0.01-2.18-0.37-2.17-1.71
			c0.04-11.85,0.03-23.69,0.04-35.54c0-1.95,0.22-2.08,2.6-2.07c11.75,0.01,23.5,0,35.24,0.01c2.91,0,2.91,0,2.91,2.34
			c0,1.05-0.11,2.11,0.03,3.15c0.2,1.51-0.71,1.97-2.3,1.97c-3.17-0.01-6.34-0.02-9.5-0.02c-5.87-0.01-11.75-0.02-17.62-0.04
			c-1.55-0.01-2.1,0.62-2.09,1.87c0.04,6.97,0.04,13.95,0.01,20.92c0,1.25,0.63,1.63,2.1,1.63c12.15-0.03,24.31,0,36.46,0.02
			c2.79,0,2.99,0.16,2.99,2.41c0,1.05,0,2.1,0,3.15c0,1.8-0.11,1.89-2.2,1.89c-7.72,0-15.44,0-23.16,0
			C329.2,93.14,329.2,93.14,329.2,93.15z"/>
		<linearGradient id="SVGID_7_" gradientUnits="userSpaceOnUse" x1="374.9196" y1="73.9712" x2="425.7824" y2="73.9712">
			<stop  offset="0" style="stop-color:#139FCE"/>
			<stop  offset="1" style="stop-color:#0E719D"/>
		</linearGradient>
		<path fill="url(#SVGID_7_)" d="M400.46,93.14c-7.6,0-15.2,0-22.8,0c-2.67,0-2.67-0.16-2.57-2.32c0.14-3.11-0.07-6.23-0.08-9.35
			c-0.04-8.33-0.04-16.67-0.09-25c-0.01-1.44,1.05-1.69,2.46-1.69c10.13,0.02,20.26,0.04,30.38,0.07c1.96,0.01,3.92,0.09,5.87,0.05
			c1.59-0.03,2.33,0.44,2.23,1.78c-0.08,1.16,0.01,2.33,0.02,3.49c0.01,1.63-0.24,1.84-2.28,1.84c-5.7-0.01-11.4-0.04-17.09-0.04
			c-3.45,0-6.89,0.01-10.34,0.06c-1.22,0.02-2,0.34-1.99,1.58c0.07,6.84,0.08,13.69,0.01,20.53c-0.02,1.42,0.71,1.73,2.27,1.73
			c12.32,0.01,24.64,0.05,36.96,0.09c2.18,0.01,2.35,0.16,2.36,1.93c0,1.35-0.01,2.7-0.04,4.05c-0.02,0.85-0.49,1.2-1.62,1.2
			C416.24,93.12,408.35,93.13,400.46,93.14C400.46,93.14,400.46,93.14,400.46,93.14z"/>
		<linearGradient id="SVGID_8_" gradientUnits="userSpaceOnUse" x1="79.7285" y1="52.6192" x2="89.2476" y2="52.6192">
			<stop  offset="0" style="stop-color:#139FCE"/>
			<stop  offset="1" style="stop-color:#0E719D"/>
		</linearGradient>
		<path fill="url(#SVGID_8_)" d="M79.73,53.8c0-12.04,0-24.07,0.01-36.11c0-1.55,0-3.1,0.18-4.63c0.05-0.44,0.68-1.16,1.07-1.17
			c2.18-0.09,4.36-0.01,6.54,0.04c1.2,0.03,1.71,0.73,1.71,1.88c-0.01,2.13,0,4.26-0.01,6.39c-0.05,8.46-0.11,16.91-0.14,25.37
			c-0.02,7.47-0.03,14.95,0,22.43c0.03,7.02,0.1,14.03,0.16,21.05c0,0.4,0.01,0.81,0,1.21c-0.08,2.9-0.28,3.1-3.17,3.1
			c-1.32,0-2.65,0.06-3.97,0c-1.93-0.09-2.27-0.66-2.26-2.59c0.02-6.56-0.06-13.13-0.08-19.69c-0.02-5.76,0-11.52,0-17.28
			C79.75,53.8,79.74,53.8,79.73,53.8z"/>
		<linearGradient id="SVGID_9_" gradientUnits="userSpaceOnUse" x1="303.6403" y1="16.447" x2="350.6907" y2="16.447">
			<stop  offset="0" style="stop-color:#139FCE"/>
			<stop  offset="1" style="stop-color:#0E719D"/>
		</linearGradient>
		<path fill="url(#SVGID_9_)" d="M327.29,11.94c7.25,0,14.49,0,21.74,0c1.09,0,1.72,0.33,1.66,1.6c-0.08,1.78-0.05,3.57,0,5.35
			c0.04,1.37-0.52,2.03-1.91,2.02c-4.19-0.03-8.39-0.03-12.58-0.04c-9.03-0.01-18.06-0.02-27.08-0.02c-0.52,0-1.04-0.04-1.55,0.03
			c-4.58,0.66-3.88-0.71-3.87-3.87c0.01-0.98,0.08-1.96-0.01-2.93c-0.15-1.67,0.57-2.24,2.2-2.23c7.13,0.05,14.27,0.02,21.4,0.02
			C327.29,11.9,327.29,11.92,327.29,11.94z"/>
		<linearGradient id="SVGID_10_" gradientUnits="userSpaceOnUse" x1="374.9213" y1="16.4317" x2="421.9051" y2="16.4317">
			<stop  offset="0" style="stop-color:#139FCE"/>
			<stop  offset="1" style="stop-color:#0E719D"/>
		</linearGradient>
		<path fill="url(#SVGID_10_)" d="M398.57,20.99c-6.9,0-13.8,0.01-20.71,0c-2.58-0.01-3.09-0.61-2.9-3.21
			c0.1-1.43,0.29-2.88,0.15-4.29c-0.13-1.35,0.47-1.62,1.56-1.62c12.02,0.01,24.04,0.01,36.06,0.03c2.53,0,5.06,0.06,7.59,0.07
			c1.17,0.01,1.62,0.54,1.58,1.72c-0.06,1.78-0.01,3.57,0.02,5.35c0.02,1.34-0.48,1.94-1.95,1.93c-7.13-0.06-14.26-0.03-21.39-0.03
			C398.57,20.95,398.57,20.97,398.57,20.99z"/>
	</g>
	<text transform="matrix(1 0 0 1 303.3904 43.5553)" fill="#383838" font-family="'ErasITC-Light'" font-size="17.4997px">LOGISTICS NETWORK</text>
</g>
</svg>
